<?xml version="1.0" encoding="UTF-8"?>
<svg width="600" height="365" version="1.1" xmlns="http://www.w3.org/2000/svg">
 <rect x="300" y="85" width="240" height="200" fill="#fff"/>
 <path d="m381.93 146.59c18.983 0 18.983 13.353 18.983 17.804v0.35139c0 15.461-11.674 17.804-18.56 17.804h-14.9v-35.842h14.478m36.135-135.99c95.723 0 173.31 78.36 171.91 174.17-1.2671 92.533-76.893 167.97-169.53 169.37-96.145 1.4056-174.43-76.018-174.43-171.6 0-6.325 0.42236-12.299 1.1146-18.507l-36.264 89.956c-0.56315 1.5227-2.1001 2.5769-3.7895 2.5769h-39.08c-1.6894 0-3.2381-1.0542-3.7895-2.5769l-40.065-99.21h-22.631v96.867c0 2.5769-2.2526 4.9195-4.9158 4.9195h-41.192c-2.804 0-5.0566-2.3426-5.0566-4.9195v-96.867h-36.264c-2.2526 0-4.0828-1.8741-4.0828-4.0996v-38.185c0-2.2255 1.8302-4.2167 4.0828-4.2167h145.34c1.6894 0 3.2381 1.1713 3.942 2.694l24.731 68.873 24.743-68.873c0.56315-1.5227 1.971-2.694 3.8012-2.694h46.518c27.277-57.628 86.455-97.687 154.91-97.687m36.687 239.42-30.504-44.393 4.6342-3.2796c13.633-9.2533 21.083-24.012 21.083-41.699 0-14.876-4.6342-26.823-13.774-35.725-10.817-11.01-27.125-16.633-48.63-16.633h-64.668c-2.2408 0-4.2119 1.9912-4.2119 4.2167v140.09c0 2.2255 1.8302 4.0996 4.2119 4.0996h40.629c2.2526 0 4.0711-1.8741 4.0711-4.0996v-36.193h7.8723l25.588 38.419c0.84472 1.1713 2.1118 1.8741 3.5079 1.8741h46.952c3.0973-0.11713 5.0566-3.8653 3.2381-6.6764m58.614-141.73h-40.769c-2.2408 0-4.2119 1.9912-4.2119 4.2167v140.09c0 2.2255 1.971 4.0996 4.2119 4.0996h40.769c2.2408 0 4.0711-1.8741 4.0711-4.0996v-140.09c0-2.3426-1.8302-4.2167-4.0711-4.2167" fill="#093266"/>
</svg>
